<?xml version="1.0" encoding="utf-8"?>
<!-- Generator: Adobe Illustrator 25.0.1, SVG Export Plug-In . SVG Version: 6.00 Build 0)  -->
<svg version="1.1" id="Layer_1" xmlns="http://www.w3.org/2000/svg" xmlns:xlink="http://www.w3.org/1999/xlink" x="0px" y="0px"
	 viewBox="0 0 800 155" style="enable-background:new 0 0 800 155;" xml:space="preserve">
<style type="text/css">
	.st0{fill:#3B3B51;}
	.st1{fill:#348BFD;}
</style>
<g>
	<g>
		<path class="st0" d="M333.5,63.6h13.3v51.6h-13.3V109c-4,5-9.6,7.5-16.8,7.5c-6.9,0-12.8-2.6-17.7-7.9c-4.9-5.3-7.4-11.7-7.4-19.3
			s2.5-14.1,7.4-19.3c4.9-5.3,10.8-7.9,17.7-7.9c7.2,0,12.8,2.5,16.8,7.5V63.6z M309,99.8c2.7,2.7,6.1,4.1,10.2,4.1
			s7.5-1.4,10.3-4.1c2.7-2.7,4.1-6.2,4.1-10.5s-1.4-7.7-4.1-10.5c-2.7-2.7-6.1-4.1-10.3-4.1s-7.5,1.4-10.2,4.1
			c-2.7,2.7-4,6.2-4,10.5S306.3,97.1,309,99.8z"/>
		<path class="st0" d="M388.4,76.4h-11.7v21.4c0,1.8,0.4,3.1,1.3,3.9c0.9,0.8,2.2,1.3,3.9,1.4c1.7,0.1,3.8,0.1,6.4-0.1v12.1
			c-9.1,1-15.6,0.2-19.3-2.6c-3.7-2.7-5.6-7.7-5.6-14.7V76.4h-9V63.6h9V53.2l13.3-4v14.4h11.7V76.4z"/>
		<path class="st0" d="M397.8,115.1V39.9h13.3v75.3H397.8z"/>
		<path class="st0" d="M462.4,63.6h13.3v51.6h-13.3V109c-4,5-9.6,7.5-16.8,7.5c-6.9,0-12.8-2.6-17.7-7.9c-4.9-5.3-7.4-11.7-7.4-19.3
			s2.5-14.1,7.4-19.3c4.9-5.3,10.8-7.9,17.7-7.9c7.2,0,12.8,2.5,16.8,7.5V63.6z M437.9,99.8c2.7,2.7,6.1,4.1,10.2,4.1
			s7.5-1.4,10.3-4.1c2.7-2.7,4.1-6.2,4.1-10.5s-1.4-7.7-4.1-10.5c-2.7-2.7-6.1-4.1-10.3-4.1s-7.5,1.4-10.2,4.1
			c-2.7,2.7-4,6.2-4,10.5S435.2,97.1,437.9,99.8z"/>
		<path class="st0" d="M499.7,78.2c0,1.4,0.9,2.5,2.7,3.4c1.8,0.9,4,1.6,6.7,2.3c2.6,0.7,5.2,1.5,7.8,2.5c2.6,1,4.8,2.7,6.6,5
			c1.8,2.3,2.7,5.3,2.7,8.8c0,5.3-2,9.4-5.9,12.2c-4,2.9-8.9,4.3-14.8,4.3c-10.6,0-17.8-4.1-21.7-12.3l11.5-6.5
			c1.5,4.5,4.9,6.7,10.1,6.7c4.7,0,7.1-1.5,7.1-4.4c0-1.4-0.9-2.5-2.7-3.3c-1.8-0.9-4-1.6-6.7-2.3c-2.6-0.7-5.2-1.6-7.8-2.6
			c-2.6-1-4.8-2.7-6.7-4.9s-2.7-5-2.7-8.4c0-5.1,1.9-9.1,5.6-12c3.7-2.9,8.4-4.4,14-4.4c4.2,0,8,0.9,11.4,2.8
			c3.4,1.9,6.1,4.6,8.1,8.1L514,79.2c-1.6-3.5-4.4-5.3-8.2-5.3c-1.7,0-3.1,0.4-4.3,1.1C500.3,75.9,499.7,76.9,499.7,78.2z"/>
		<path class="st0" d="M567.3,63.6h14.6l-19.6,51.6h-15.2l-19.6-51.6h14.6l12.5,36.1L567.3,63.6z"/>
		<path class="st0" d="M618.3,62.1c6.9,0,12.9,2.6,17.8,7.9c4.9,5.3,7.4,11.7,7.4,19.3s-2.5,14.1-7.4,19.3
			c-4.9,5.3-10.8,7.9-17.8,7.9c-7.2,0-12.8-2.5-16.7-7.5v26.7h-13.3V63.6h13.3v6.1C605.5,64.6,611.1,62.1,618.3,62.1z M605.6,99.8
			c2.7,2.7,6.1,4.1,10.2,4.1c4.1,0,7.5-1.4,10.3-4.1c2.7-2.7,4.1-6.2,4.1-10.5s-1.4-7.7-4.1-10.5c-2.7-2.7-6.1-4.1-10.3-4.1
			c-4.1,0-7.5,1.4-10.2,4.1c-2.7,2.7-4,6.2-4,10.5S603,97.1,605.6,99.8z"/>
		<path class="st0" d="M681.5,62.1c5.6,0,10.3,1.9,14,5.7c3.7,3.8,5.5,9,5.5,15.7v31.7h-13.3v-30c0-3.4-0.9-6.1-2.8-7.9
			c-1.9-1.8-4.3-2.7-7.4-2.7c-3.4,0-6.2,1.1-8.2,3.2s-3.1,5.3-3.1,9.6v27.8h-13.3V63.6h13.3v5.8C669.4,64.5,674.5,62.1,681.5,62.1z"
			/>
	</g>
	<path class="st1" d="M241.5,111.4l-23.2-54.8c-11.8-27.9-14.6-34.5-15.2-36.1c-2.3-5.3-5.9-10-10.4-13.6
		c-5.9-4.6-13.4-7.2-20.8-6.9c-7.6-0.1-15.4,2.4-21.6,7.1c-4.6,3.6-8.3,8.3-10.6,13.6l-38.1,90.6c-5,11.6-2.6,25,6,34.1
		c5.9,6.1,14,9.5,22.4,9.5c1.8,0,3.6-0.2,5.5-0.5c10.2-1.8,18.8-8.5,23-18l0-0.1c2-5.4,7.2-9,13-9.1c5.6-0.2,10.9,3.3,13,8.6
		c4.2,9.6,12.9,16.4,23.3,18.3c11.3,2,22.7-2.3,29.8-11.3C244.6,133.9,246.1,121.9,241.5,111.4z M225.1,135.2c-3.9,4-9.5,5.8-15,4.8
		c-5.7-1-10.4-4.7-12.7-9.9c-4.2-10.4-14.4-17.3-25.6-17.3c-0.3,0-0.6,0-1,0c-11.1,0-21.3,6.8-25.6,17.1c-2.1,5.3-6.7,9.1-12.4,10.1
		c-1,0.2-2.1,0.3-3.1,0.3c-4.5,0-8.8-1.9-12-5.1c-4.7-4.8-6-12.1-3.2-18.3l38.2-90.4c1.4-3.2,3.6-6,6.2-8.1
		c3.3-2.5,7.4-3.9,11.7-3.9c0.5,0,1,0,1.5,0.1c7.8-0.1,14.8,4.7,17.7,11.9l38.5,90.5C231.1,123.1,229.8,130.3,225.1,135.2z"/>
</g>
</svg>
