<?xml version="1.0" encoding="UTF-8"?> <svg xmlns="http://www.w3.org/2000/svg" width="146" height="54" viewBox="0 0 146 54"> <g fill="none" fill-rule="evenodd"> <path fill="#4687FF" d="M4.1728 44.7985c-6.582-9.0833-5.2487-21.6693 3.0906-29.1717 8.3392-7.5024 20.9956-7.5024 29.3349 0 8.3392 7.5024 9.6726 20.0884 3.0905 29.1717L29.1532 27.6632l-1.0189 1.7248 1.0323 4.7817-7.2391-12.407-4.4753 7.572 1.0456 4.835-3.796-6.4932-10.529 17.122z"></path> <path fill="#151922" fill-rule="nonzero" d="M62.0473 36.6184h3.1877V21.591h-3.0908v9.8051l-6.569-9.805H52v15.0273h3.0907V26.2901l6.9566 10.3283zm5.0189-5.106a5.4645 5.4645 0 0 1 5.668-5.3676 5.3773 5.3773 0 0 1 5.6001 5.3095 5.4645 5.4645 0 0 1-5.6389 5.3967 5.387 5.387 0 0 1-5.6292-5.3386zm3.0907 0c.032 1.4006 1.1886 2.5127 2.5893 2.4897 1.4007-.023 2.5202-1.1724 2.5063-2.5732-.014-1.4009-1.1562-2.5278-2.557-2.5228a2.5288 2.5288 0 0 0-2.5386 2.5676v.0387zm16.0738-5.0963a3.6624 3.6624 0 0 0-.8041-.1163 2.7807 2.7807 0 0 0-2.6645 1.6084v-1.5309h-2.897v10.2411h2.9067v-4.515c0-1.9377.969-2.9066 2.4513-2.9066.3247-.004.649.0219.9689.0775l.0387-2.8582zm8.4875 10.2411v-1.3468a3.7302 3.7302 0 0 1-3.207 1.5018c-2.9939 0-4.9026-2.5675-4.9026-5.3385-.0609-2.812 2.1318-5.1594 4.9413-5.2902a4.0306 4.0306 0 0 1 3.0908 1.3565V21h2.9938v15.6184l-2.9163.0388zm0-5.1448c-.0478-1.395-1.209-2.4919-2.6043-2.4603-1.3955.0316-2.5058 1.1799-2.4904 2.5756.0154 1.3957 1.1507 2.5193 2.5465 2.52a2.5094 2.5094 0 0 0 2.5482-2.674v.0387zm9.466 5.1448h3.614l5.4838-15.0274h-3.3232l-3.9337 11.3844-3.924-11.4232h-3.3814l5.4645 15.0662zm21.5577-10.2508c0 3.3233-2.3544 4.922-5.5226 4.922h-2.4126v5.29h-3.0907V21.591h5.6195c3.0327 0 5.4064 1.6374 5.4064 4.8154zm-3.0907.0775c0-1.4533-1.2402-1.9378-2.5385-1.9378h-2.306v3.8756h2.2382c1.2789 0 2.6063-.533 2.6063-1.9378zm14.8627 10.1345h3.1876V21.591h-3.0907v9.8051l-6.569-9.805h-3.5462v15.0273h3.0908V26.2901l6.9275 10.3283zm6.3365-11.83a1.5793 1.5793 0 1 1 1.5696-1.5793c0 .8684-.7012 1.574-1.5696 1.5792zm0-2.9067a1.2886 1.2886 0 1 0 1.279 1.2886c-.0159-.695-.5839-1.25-1.279-1.2499v-.0387zm-.2422 1.5405v.6492h-.3682V22.308h.7267a.5716.5716 0 0 1 .6491.562.5329.5329 0 0 1-.3488.5231l.3779.717h-.407l-.3294-.6491-.3003-.0388zm.6104-.5716c0-.1841-.155-.2229-.3004-.2229h-.31v.4457h.3585a.1872.1872 0 0 0 .2519-.184v-.0388z"></path> </g> </svg> 